<svg xmlns="http://www.w3.org/2000/svg" version="1.1" xmlns:xlink="http://www.w3.org/1999/xlink" xmlns:svgjs="http://svgjs.dev/svgjs" width="2000" height="1500" viewBox="0 0 2000 1500"><rect width="2000" height="1500" fill="#e9e2da"></rect><g transform="matrix(0.75,0,0,0.75,249.090909090909,455.1255879335446)"><svg viewBox="0 0 396 155" data-background-color="#e9e2da" preserveAspectRatio="xMidYMid meet" height="782" width="2000" xmlns="http://www.w3.org/2000/svg" xmlns:xlink="http://www.w3.org/1999/xlink"><g id="tight-bounds" transform="matrix(1,0,0,1,0.2400000000000091,0.4292990115952193)"><svg viewBox="0 0 395.52 154.14140197680956" height="154.14140197680956" width="395.52"><g><svg viewBox="0 0 683.6480163457434 266.4301772304756" height="154.14140197680956" width="395.52"><g transform="matrix(1,0,0,1,0,35.39407740726767)"><svg viewBox="0 0 395.52 195.64202241594023" height="195.64202241594023" width="395.52"><g id="textblocktransform"><svg viewBox="0 0 395.52 195.64202241594023" height="195.64202241594023" width="395.52" id="textblock"><g><svg viewBox="0 0 395.52 195.64202241594023" height="195.64202241594023" width="395.52"><g transform="matrix(1,0,0,1,0,0)"><svg width="395.52" viewBox="23.229999999999997 -35.050000000000004 200.75000000000003 85.5" height="195.64202241594023" data-palette-color="#1b2141"><svg></svg><svg></svg><g class="wordmark-text-0" data-fill-palette-color="primary" id="text-0"><path transform="translate(21.83,0)" d="M9.25-26.65v0l-2.95 25.35-4.2 1.4-0.7-0.25 3.75-17.85c0.3-1.367 0.593-2.8 0.88-4.3 0.28-1.5 0.52-2.95 0.72-4.35 0.2-1.4 0.3-2.617 0.3-3.65v0c0-0.833-0.367-1.543-1.1-2.13-0.733-0.58-2.033-0.92-3.9-1.02v0-1.2l0.4-0.4h11.25c1.633 4.533 3.35 9.023 5.15 13.47 1.8 4.453 3.8 8.863 6 13.23v0c0.067 0.133 0.167 0.2 0.3 0.2v0c0.1 0 0.217-0.067 0.35-0.2v0c0.6-0.967 1.26-2.067 1.98-3.3 0.713-1.233 1.43-2.467 2.15-3.7 0.713-1.233 1.37-2.377 1.97-3.43 0.6-1.047 1.083-1.897 1.45-2.55 0.367-0.647 0.55-0.97 0.55-0.97v0c1.1-2.067 2.15-4.133 3.15-6.2 1-2.067 1.833-4.2 2.5-6.4v0l8.1-0.1 0.3 0.6-0.95 1c-0.233 0.233-0.373 0.61-0.42 1.13-0.053 0.513-0.08 1.353-0.08 2.52v0 7.3c0 2.233 0.06 4.45 0.18 6.65 0.113 2.2 0.27 4.4 0.47 6.6v0c0.133 1.2 0.277 2.29 0.43 3.27 0.147 0.987 0.437 1.77 0.87 2.35 0.433 0.587 1.117 0.88 2.05 0.88v0c0.467 0 0.977-0.027 1.53-0.08 0.547-0.047 1.003-0.087 1.37-0.12v0l0.2 1.35c-0.2 0-0.717 0.117-1.55 0.35-0.833 0.233-1.8 0.507-2.9 0.82-1.1 0.32-2.15 0.597-3.15 0.83-1 0.233-1.75 0.35-2.25 0.35v0c-0.967 0-1.69-0.283-2.17-0.85-0.487-0.567-0.73-1.183-0.73-1.85v0c0-0.733 0-1.85 0-3.35 0-1.5-0.007-3.2-0.02-5.1-0.02-1.9-0.053-3.833-0.1-5.8-0.053-1.967-0.12-3.783-0.2-5.45-0.087-1.667-0.197-3.017-0.33-4.05-0.133-1.033-0.3-1.55-0.5-1.55v0c-0.067 0-0.217 0.183-0.45 0.55v0c-2.7 4.433-5.223 8.84-7.57 13.22-2.353 4.387-4.73 8.88-7.13 13.48v0h-3.7c-1.633-4.567-3.283-9.043-4.95-13.43-1.667-4.38-3.5-8.787-5.5-13.22v0c-0.1-0.233-0.25-0.35-0.45-0.35v0c-0.267 0-0.4 0.1-0.4 0.3zM58.7-31.05v0c0-0.9 0.327-1.677 0.98-2.33 0.647-0.647 1.42-0.97 2.32-0.97v0c0.9 0 1.677 0.323 2.33 0.97 0.647 0.653 0.97 1.43 0.97 2.33v0c0 0.9-0.323 1.673-0.97 2.32-0.653 0.653-1.43 0.98-2.33 0.98v0c-0.9 0-1.673-0.327-2.32-0.98-0.653-0.647-0.98-1.42-0.98-2.32zM70.25-5.95v0l0.85 0.8v0.55c-0.633 0.767-1.367 1.557-2.2 2.37-0.833 0.82-1.723 1.503-2.67 2.05-0.953 0.553-1.93 0.83-2.93 0.83v0c-0.6 0-1.167-0.123-1.7-0.37-0.533-0.253-0.967-0.597-1.3-1.03v0c-0.433-0.6-0.717-1.333-0.85-2.2-0.133-0.867-0.183-2.077-0.15-3.63 0.033-1.547 0.05-3.587 0.05-6.12v0-5.85c-0.033-0.533-0.157-1.077-0.37-1.63-0.22-0.547-0.68-0.82-1.38-0.82v0c-0.533 0-1.09 0.157-1.67 0.47-0.587 0.32-1.18 0.697-1.78 1.13v0l-0.8-1.1c0.767-0.633 1.61-1.267 2.53-1.9 0.913-0.633 1.853-1.167 2.82-1.6 0.967-0.433 1.933-0.65 2.9-0.65v0c0.5 0 0.983 0.09 1.45 0.27 0.467 0.187 0.817 0.48 1.05 0.88v0c0.2 0.333 0.35 0.75 0.45 1.25 0.1 0.5 0.15 1.483 0.15 2.95v0c0 1-0.023 2.007-0.07 3.02-0.053 1.02-0.08 2.03-0.08 3.03v0c0 2.033-0.007 3.767-0.02 5.2-0.02 1.433 0.12 2.533 0.42 3.3 0.3 0.767 0.883 1.15 1.75 1.15v0c0.6 0 1.217-0.267 1.85-0.8 0.633-0.533 1.2-1.05 1.7-1.55zM80-34.85l0.65 0.6-0.4 22.7c0 0.333-0.007 0.683-0.02 1.05-0.02 0.367-0.03 0.733-0.03 1.1v0c0 1.767 0.11 3.123 0.33 4.07 0.213 0.953 0.737 1.43 1.57 1.43v0c0.7 0 1.367-0.243 2-0.73 0.633-0.48 1.2-0.987 1.7-1.52v0h0.6l0.8 0.8c-0.633 0.833-1.373 1.69-2.22 2.57-0.853 0.887-1.78 1.63-2.78 2.23-1 0.6-2.05 0.9-3.15 0.9v0c-1.433 0-2.44-0.333-3.02-1-0.587-0.667-0.937-1.5-1.05-2.5-0.12-1-0.18-2.017-0.18-3.05v0c0-1.9 0.033-3.817 0.1-5.75 0.067-1.933 0.1-3.917 0.1-5.95v0c0-1.4 0-2.817 0-4.25 0-1.433-0.017-2.833-0.05-4.2v0c-0.033-0.733-0.057-1.533-0.07-2.4-0.02-0.867-0.08-1.517-0.18-1.95v0c-0.2-0.867-0.733-1.367-1.6-1.5-0.867-0.133-1.833-0.217-2.9-0.25v0-1.15l0.6-0.4zM92-31.05v0c0-0.9 0.323-1.677 0.97-2.33 0.653-0.647 1.43-0.97 2.33-0.97v0c0.9 0 1.677 0.323 2.33 0.97 0.647 0.653 0.97 1.43 0.97 2.33v0c0 0.9-0.323 1.673-0.97 2.32-0.653 0.653-1.43 0.98-2.33 0.98v0c-0.9 0-1.677-0.327-2.33-0.98-0.647-0.647-0.97-1.42-0.97-2.32zM103.55-5.95v0l0.85 0.8v0.55c-0.633 0.767-1.367 1.557-2.2 2.37-0.833 0.82-1.723 1.503-2.67 2.05-0.953 0.553-1.93 0.83-2.93 0.83v0c-0.6 0-1.167-0.123-1.7-0.37-0.533-0.253-0.967-0.597-1.3-1.03v0c-0.433-0.6-0.717-1.333-0.85-2.2-0.133-0.867-0.183-2.077-0.15-3.63 0.033-1.547 0.05-3.587 0.05-6.12v0-5.85c-0.033-0.533-0.157-1.077-0.37-1.63-0.22-0.547-0.68-0.82-1.38-0.82v0c-0.533 0-1.093 0.157-1.68 0.47-0.58 0.32-1.17 0.697-1.77 1.13v0l-0.8-1.1c0.767-0.633 1.607-1.267 2.52-1.9 0.92-0.633 1.863-1.167 2.83-1.6 0.967-0.433 1.933-0.65 2.9-0.65v0c0.5 0 0.983 0.09 1.45 0.27 0.467 0.187 0.817 0.48 1.05 0.88v0c0.2 0.333 0.35 0.75 0.45 1.25 0.1 0.5 0.15 1.483 0.15 2.95v0c0 1-0.027 2.007-0.08 3.02-0.047 1.02-0.07 2.03-0.07 3.03v0c0 2.033-0.007 3.767-0.02 5.2-0.02 1.433 0.12 2.533 0.42 3.3 0.3 0.767 0.883 1.15 1.75 1.15v0c0.6 0 1.217-0.267 1.85-0.8 0.633-0.533 1.2-1.05 1.7-1.55zM109.25-29.4v0l5.35-1.8 0.75 0.35c0 0-0.023 0.283-0.07 0.85-0.053 0.567-0.103 1.273-0.15 2.12-0.053 0.853-0.113 1.747-0.18 2.68-0.067 0.933-0.133 1.783-0.2 2.55v0l0.35 0.4h6.25l0.35 0.5-0.5 1.3-0.6 0.45h-5.5l-0.4 0.4v7.95c0 1.4 0.043 2.707 0.13 3.92 0.08 1.22 0.313 2.203 0.7 2.95 0.38 0.753 1.02 1.13 1.92 1.13v0c0.667 0 1.377-0.21 2.13-0.63 0.747-0.413 1.387-0.87 1.92-1.37v0h0.5l0.6 0.75c-0.633 0.833-1.373 1.667-2.22 2.5-0.853 0.833-1.787 1.533-2.8 2.1-1.02 0.567-2.097 0.85-3.23 0.85v0c-1.2 0-2.133-0.25-2.8-0.75-0.667-0.5-1.15-1.177-1.45-2.03-0.3-0.847-0.483-1.787-0.55-2.82-0.067-1.033-0.1-2.067-0.1-3.1v0-11.4l-0.45-0.45h-5.5l-0.3-0.4 0.5-1.45 0.55-0.35h4.8l0.35-0.45c0-0.867-0.017-1.827-0.05-2.88-0.033-1.047-0.057-1.953-0.07-2.72-0.02-0.767-0.03-1.15-0.03-1.15zM143.85-22.75l3-1.9 0.7 0.45c-0.233 2.267-0.427 4.54-0.58 6.82-0.147 2.287-0.22 4.563-0.22 6.83v0c0 2.233 0.067 3.94 0.2 5.12 0.133 1.187 0.617 1.78 1.45 1.78v0c0.567 0 1.167-0.243 1.8-0.73 0.633-0.48 1.2-0.937 1.7-1.37v0l0.95 1.05c-0.667 0.8-1.427 1.61-2.28 2.43-0.847 0.813-1.77 1.493-2.77 2.04-1 0.553-2.067 0.83-3.2 0.83v0c-1.133 0-1.907-0.367-2.32-1.1-0.42-0.733-0.68-1.467-0.78-2.2v0l-0.65-0.25c-1.3 0.967-2.75 1.823-4.35 2.57-1.6 0.753-3.25 1.13-4.95 1.13v0c-1.333 0-2.457-0.333-3.37-1-0.92-0.667-1.653-1.533-2.2-2.6-0.553-1.067-0.947-2.193-1.18-3.38-0.233-1.18-0.35-2.287-0.35-3.32v0c0-5.067 1.027-8.893 3.08-11.48 2.047-2.58 5.053-3.87 9.02-3.87v0c1.367 0 2.65 0.19 3.85 0.57 1.2 0.387 2.35 0.913 3.45 1.58zM141.6-16.55v0c0-0.867-0.1-1.8-0.3-2.8-0.2-1-0.623-1.86-1.27-2.58-0.653-0.713-1.663-1.07-3.03-1.07v0c-1.433 0-2.6 0.373-3.5 1.12-0.9 0.753-1.6 1.72-2.1 2.9-0.5 1.187-0.84 2.447-1.02 3.78-0.187 1.333-0.28 2.567-0.28 3.7v0c0 0.867 0.073 1.783 0.22 2.75 0.153 0.967 0.43 1.873 0.83 2.72 0.4 0.853 0.943 1.547 1.63 2.08 0.68 0.533 1.537 0.8 2.57 0.8v0c1.133 0 2.207-0.283 3.22-0.85 1.02-0.567 1.897-1.183 2.63-1.85v0c0.1-0.733 0.177-1.727 0.23-2.98 0.047-1.247 0.087-2.563 0.12-3.95 0.033-1.38 0.05-2.637 0.05-3.77zM164.2-1.65v0l-5.3 1.95-1-0.35c0.033-1 0.067-2.143 0.1-3.43 0.033-1.28 0.067-2.57 0.1-3.87 0.033-1.3 0.057-2.51 0.07-3.63 0.02-1.113 0.037-2.013 0.05-2.7 0.02-0.68 0.03-1.02 0.03-1.02v0c0-1-0.017-1.967-0.05-2.9-0.033-0.933-0.167-1.693-0.4-2.28-0.233-0.58-0.683-0.87-1.35-0.87v0c-0.467 0-1.033 0.157-1.7 0.47-0.667 0.32-1.233 0.663-1.7 1.03v0l-0.8-1.15c0.767-0.6 1.583-1.21 2.45-1.83 0.867-0.613 1.76-1.137 2.68-1.57 0.913-0.433 1.837-0.65 2.77-0.65v0c1.367 0 2.257 0.417 2.67 1.25 0.42 0.833 0.63 1.867 0.63 3.1v0l0.55 0.25c0.667-0.7 1.4-1.393 2.2-2.08 0.8-0.68 1.65-1.247 2.55-1.7 0.9-0.447 1.833-0.67 2.8-0.67v0c1.433 0 2.45 0.467 3.05 1.4 0.6 0.933 0.9 1.967 0.9 3.1v0l-3.75 2.9-0.65-0.4c-0.133-0.7-0.433-1.333-0.9-1.9-0.467-0.567-1.117-0.85-1.95-0.85v0c-1.3 0-2.29 0.41-2.97 1.23-0.687 0.813-1.153 1.777-1.4 2.89-0.253 1.12-0.38 2.147-0.38 3.08v0c0 0.533 0.033 1.45 0.1 2.75 0.067 1.3 0.16 2.717 0.28 4.25 0.113 1.533 0.22 2.933 0.32 4.2zM201.25-24.55l0.9 0.2c-0.033 0.733-0.067 1.39-0.1 1.97-0.033 0.587-0.06 1.247-0.08 1.98-0.013 0.733-0.02 1.657-0.02 2.77 0 1.12 0 2.547 0 4.28 0 1.733 0 3.9 0 6.5v0c0 1.9-0.05 3.49-0.15 4.77-0.1 1.287-0.3 2.563-0.6 3.83v0c-0.467 2-1.45 3.733-2.95 5.2-1.5 1.467-3.26 2.61-5.28 3.43-2.013 0.813-4.053 1.22-6.12 1.22v0c-1.433 0-2.9-0.333-4.4-1-1.5-0.667-2.7-1.517-3.6-2.55v0l3-3.95h1.05c0.767 1.333 1.677 2.5 2.73 3.5 1.047 1 2.203 1.5 3.47 1.5v0c1.9 0 3.357-0.533 4.37-1.6 1.02-1.067 1.74-2.49 2.16-4.27 0.413-1.787 0.637-3.763 0.67-5.93v0l-0.5-0.2c-1.333 0.867-2.877 1.657-4.63 2.37-1.747 0.72-3.353 1.08-4.82 1.08v0c-1.4 0-2.483-0.267-3.25-0.8-0.767-0.533-1.31-1.243-1.63-2.13-0.313-0.88-0.503-1.88-0.57-3-0.067-1.113-0.1-2.253-0.1-3.42v0c0-1.267 0.05-2.55 0.15-3.85 0.1-1.3 0.15-2.583 0.15-3.85v0c0-0.533-0.027-1.14-0.08-1.82-0.047-0.687-0.22-1.28-0.52-1.78-0.3-0.5-0.833-0.75-1.6-0.75v0c-0.433 0-0.927 0.167-1.48 0.5-0.547 0.333-1.02 0.683-1.42 1.05v0l-0.9-1.25c1.067-0.933 2.333-1.817 3.8-2.65 1.467-0.833 2.933-1.25 4.4-1.25v0c0.833 0 1.583 0.3 2.25 0.9v0c0.267 0.233 0.483 0.623 0.65 1.17 0.167 0.553 0.25 1.613 0.25 3.18v0c0 1.467-0.043 2.907-0.13 4.32-0.08 1.42-0.12 2.913-0.12 4.48v0c0 2.667 0.3 4.557 0.9 5.67 0.6 1.12 1.817 1.68 3.65 1.68v0c0.7 0 1.423-0.133 2.17-0.4 0.753-0.267 1.447-0.577 2.08-0.93 0.633-0.347 1.083-0.603 1.35-0.77v0c0.133-1.467 0.227-2.977 0.28-4.53 0.047-1.547 0.07-3.103 0.07-4.67v0c0-1.467-0.033-2.91-0.1-4.33-0.067-1.413-0.183-2.787-0.35-4.12v0z" fill="#1b2141" fill-rule="nonzero" stroke="none" stroke-width="1" stroke-linecap="butt" stroke-linejoin="miter" stroke-miterlimit="10" stroke-dasharray="" stroke-dashoffset="0" font-family="none" font-weight="none" font-size="none" text-anchor="none" style="mix-blend-mode: normal" data-fill-palette-color="primary" opacity="1"></path><path transform="translate(61.1,49.65)" d="M26.3-31.1l-4.75 3.7-0.85-0.25c-0.133-1.1-0.473-2.16-1.02-3.18-0.553-1.013-1.297-1.837-2.23-2.47-0.933-0.633-2.083-0.95-3.45-0.95v0c-1.6 0-2.867 0.5-3.8 1.5-0.933 1-1.4 2.183-1.4 3.55v0c0 1.433 0.4 2.657 1.2 3.67 0.8 1.02 1.8 1.903 3 2.65 1.2 0.753 2.417 1.447 3.65 2.08v0c1.967 1 3.66 1.973 5.08 2.92 1.413 0.953 2.513 1.997 3.3 3.13 0.78 1.133 1.17 2.5 1.17 4.1v0c0 1.7-0.457 3.25-1.37 4.65-0.92 1.4-2.137 2.6-3.65 3.6-1.52 1-3.17 1.767-4.95 2.3-1.787 0.533-3.563 0.8-5.33 0.8v0c-2.033 0-3.933-0.433-5.7-1.3-1.767-0.867-3.233-2.117-4.4-3.75v0l4.85-5.45 0.95 0.35c0 1.233 0.283 2.44 0.85 3.62 0.567 1.187 1.393 2.163 2.48 2.93 1.08 0.767 2.353 1.15 3.82 1.15v0c1.2 0 2.283-0.293 3.25-0.88 0.967-0.58 1.733-1.347 2.3-2.3 0.567-0.947 0.85-1.937 0.85-2.97v0c0-0.967-0.267-1.843-0.8-2.63-0.533-0.78-1.167-1.503-1.9-2.17v0c-0.733-0.667-1.683-1.317-2.85-1.95-1.167-0.633-2.4-1.31-3.7-2.03-1.3-0.713-2.533-1.51-3.7-2.39-1.167-0.887-2.117-1.897-2.85-3.03-0.733-1.133-1.1-2.433-1.1-3.9v0c0-1.8 0.367-3.35 1.1-4.65 0.733-1.3 1.717-2.35 2.95-3.15 1.233-0.8 2.627-1.393 4.18-1.78 1.547-0.38 3.137-0.57 4.77-0.57v0c2.567 0 4.693 0.377 6.38 1.13 1.68 0.747 2.903 2.053 3.67 3.92zM32.95-29.4v0l5.35-1.8 0.75 0.35c0 0-0.023 0.283-0.07 0.85-0.053 0.567-0.103 1.273-0.15 2.12-0.053 0.853-0.113 1.747-0.18 2.68-0.067 0.933-0.133 1.783-0.2 2.55v0l0.35 0.4h6.25l0.35 0.5-0.5 1.3-0.6 0.45h-5.5l-0.4 0.4v7.95c0 1.4 0.043 2.707 0.13 3.92 0.08 1.22 0.313 2.203 0.7 2.95 0.38 0.753 1.02 1.13 1.92 1.13v0c0.667 0 1.377-0.21 2.13-0.63 0.747-0.413 1.387-0.87 1.92-1.37v0h0.5l0.6 0.75c-0.633 0.833-1.373 1.667-2.22 2.5-0.853 0.833-1.787 1.533-2.8 2.1-1.02 0.567-2.097 0.85-3.23 0.85v0c-1.2 0-2.133-0.25-2.8-0.75-0.667-0.5-1.15-1.177-1.45-2.03-0.3-0.847-0.483-1.787-0.55-2.82-0.067-1.033-0.1-2.067-0.1-3.1v0-11.4l-0.45-0.45h-5.5l-0.3-0.4 0.5-1.45 0.55-0.35h4.8l0.35-0.45c0-0.867-0.017-1.827-0.05-2.88-0.033-1.047-0.057-1.953-0.07-2.72-0.02-0.767-0.03-1.15-0.03-1.15zM48-11.65v0c0-2.433 0.577-4.6 1.73-6.5 1.147-1.9 2.72-3.4 4.72-4.5 2-1.1 4.3-1.65 6.9-1.65v0c1.6 0 3.183 0.19 4.75 0.57 1.567 0.387 2.933 1.113 4.1 2.18v0c1.167 1.033 2.017 2.233 2.55 3.6 0.533 1.367 0.8 2.783 0.8 4.25v0c0 3.433-0.617 6.19-1.85 8.27-1.233 2.087-2.867 3.603-4.9 4.55-2.033 0.953-4.283 1.43-6.75 1.43v0c-1.533 0-3.05-0.15-4.55-0.45-1.5-0.3-2.8-0.95-3.9-1.95v0c-1.4-1.267-2.35-2.777-2.85-4.53-0.5-1.747-0.75-3.503-0.75-5.27zM54.45-11.7v0c0 0.833 0.083 1.827 0.25 2.98 0.167 1.147 0.467 2.27 0.9 3.37 0.433 1.1 1.043 2.017 1.83 2.75 0.78 0.733 1.787 1.1 3.02 1.1v0c1.6 0 2.85-0.35 3.75-1.05 0.9-0.7 1.56-1.633 1.98-2.8 0.413-1.167 0.67-2.45 0.77-3.85 0.1-1.4 0.15-2.8 0.15-4.2v0c0-1.433-0.173-2.823-0.52-4.17-0.353-1.353-0.97-2.48-1.85-3.38-0.887-0.9-2.113-1.35-3.68-1.35v0c-1.3 0-2.383 0.34-3.25 1.02-0.867 0.687-1.54 1.57-2.02 2.65-0.487 1.087-0.83 2.237-1.03 3.45-0.2 1.22-0.3 2.38-0.3 3.48zM86.75-1.65v0l-5.3 1.95-1-0.35c0.033-1 0.067-2.143 0.1-3.43 0.033-1.28 0.067-2.57 0.1-3.87 0.033-1.3 0.06-2.51 0.08-3.63 0.013-1.113 0.03-2.013 0.05-2.7 0.013-0.68 0.02-1.02 0.02-1.02v0c0-1-0.017-1.967-0.05-2.9-0.033-0.933-0.167-1.693-0.4-2.28-0.233-0.58-0.683-0.87-1.35-0.87v0c-0.467 0-1.033 0.157-1.7 0.47-0.667 0.32-1.233 0.663-1.7 1.03v0l-0.8-1.15c0.767-0.6 1.583-1.21 2.45-1.83 0.867-0.613 1.76-1.137 2.68-1.57 0.913-0.433 1.837-0.65 2.77-0.65v0c1.367 0 2.26 0.417 2.68 1.25 0.413 0.833 0.62 1.867 0.62 3.1v0l0.55 0.25c0.667-0.7 1.4-1.393 2.2-2.08 0.8-0.68 1.65-1.247 2.55-1.7 0.9-0.447 1.833-0.67 2.8-0.67v0c1.433 0 2.45 0.467 3.05 1.4 0.6 0.933 0.9 1.967 0.9 3.1v0l-3.75 2.9-0.65-0.4c-0.133-0.7-0.433-1.333-0.9-1.9-0.467-0.567-1.117-0.85-1.95-0.85v0c-1.3 0-2.29 0.41-2.97 1.23-0.687 0.813-1.153 1.777-1.4 2.89-0.253 1.12-0.38 2.147-0.38 3.08v0c0 0.533 0.033 1.45 0.1 2.75 0.067 1.3 0.16 2.717 0.28 4.25 0.113 1.533 0.22 2.933 0.32 4.2zM120.45-5.25l0.75 0.2 0.55 0.95c-1.1 0.8-2.277 1.573-3.53 2.32-1.247 0.753-2.537 1.373-3.87 1.86-1.333 0.48-2.683 0.72-4.05 0.72v0c-1.433 0-2.84-0.19-4.22-0.57-1.387-0.387-2.58-1.047-3.58-1.98v0c-1.2-1.1-2.007-2.4-2.42-3.9-0.42-1.5-0.63-3.017-0.63-4.55v0c0-1.833 0.283-3.617 0.85-5.35 0.567-1.733 1.433-3.293 2.6-4.68 1.167-1.38 2.627-2.48 4.38-3.3 1.747-0.813 3.803-1.22 6.17-1.22v0c1.567 0 3.083 0.223 4.55 0.67 1.467 0.453 2.667 1.213 3.6 2.28 0.933 1.067 1.4 2.517 1.4 4.35v0c0 0.533-0.123 0.933-0.37 1.2-0.253 0.267-0.613 0.483-1.08 0.65v0c0 0-0.383 0.117-1.15 0.35-0.767 0.233-1.767 0.54-3 0.92-1.233 0.387-2.567 0.797-4 1.23-1.433 0.433-2.85 0.867-4.25 1.3-1.4 0.433-2.633 0.817-3.7 1.15v0c0 1.333 0.283 2.617 0.85 3.85 0.567 1.233 1.4 2.24 2.5 3.02 1.1 0.787 2.45 1.18 4.05 1.18v0c1.367 0 2.693-0.267 3.98-0.8 1.28-0.533 2.487-1.15 3.62-1.85zM106.1-12.9v0c2.3-0.733 4.167-1.31 5.6-1.73 1.433-0.413 2.517-0.747 3.25-1 0.733-0.247 1.233-0.477 1.5-0.69 0.267-0.22 0.4-0.513 0.4-0.88v0c0-0.867-0.15-1.727-0.45-2.58-0.3-0.847-0.783-1.553-1.45-2.12-0.667-0.567-1.55-0.85-2.65-0.85v0c-1.333 0-2.45 0.323-3.35 0.97-0.9 0.653-1.6 1.48-2.1 2.48-0.5 1-0.857 2.057-1.07 3.17-0.22 1.12-0.33 2.13-0.33 3.03v0c0 0.167 0.117 0.25 0.35 0.25v0c0.067 0 0.123-0.01 0.17-0.03 0.053-0.013 0.097-0.02 0.13-0.02z" fill="#1b2141" fill-rule="nonzero" stroke="none" stroke-width="1" stroke-linecap="butt" stroke-linejoin="miter" stroke-miterlimit="10" stroke-dasharray="" stroke-dashoffset="0" font-family="none" font-weight="none" font-size="none" text-anchor="none" style="mix-blend-mode: normal" data-fill-palette-color="primary" opacity="1"></path></g></svg></g></svg></g></svg></g></svg></g><g transform="matrix(1,0,0,1,417.21783394574345,0)"><svg viewBox="0 0 266.4301824 266.4301772304756" height="266.4301772304756" width="266.4301824"><g><svg xmlns="http://www.w3.org/2000/svg" xmlns:xlink="http://www.w3.org/1999/xlink" version="1.1" x="0" y="0" viewBox="0 0 50.400000977907354 50.4" enable-background="new 0 0 50.4 50.4" xml:space="preserve" id="icon-0" width="266.4301824" height="266.4301772304756" class="icon-icon-0" data-fill-palette-color="accent"><polygon points="17.55,9.959 17.55,0 15.842,0 15.842,18.163 19.149,18.163 19.149,9.959 " fill="#1b2141" data-fill-palette-color="accent"></polygon><g fill="#1b2141" data-fill-palette-color="accent"><g fill="#1b2141" data-fill-palette-color="accent"><path d="M29.75 16.466H42.463V19.39L44.091 19.384 44.089 19.159S44.068 17.121 44.068 16.27C44.068 11.518 40.484 7.683 36.099 7.683 31.71 7.683 28.1 11.593 28.1 16.346 28.1 17.206 28.079 19.295 28.079 19.296L28.077 19.383H29.749z" fill="#1b2141" data-fill-palette-color="accent"></path><path d="M30.895 17.575C30.884 17.697 30.867 17.818 30.867 17.942A5.232 5.232 0 0 0 41.331 17.942C41.331 17.817 41.312 17.696 41.304 17.575z" fill="#1b2141" data-fill-palette-color="accent"></path></g><path d="M43.27 24.094H29.344C25.276 24.094 22.205 26.448 22.205 30.603V47.82A2.523 2.523 0 0 0 27.251 47.82L27.253 32.403H28.838V50.4H43.77V32.402H45.347L45.355 47.819A2.522 2.522 0 0 0 50.4 47.819V30.601C50.402 26.446 47.336 24.094 43.27 24.094M41.275 32.788L39.226 31.71 37.178 32.788 37.569 30.507 35.913 28.893 38.202 28.56 39.226 26.485 40.249 28.56 42.539 28.893 40.882 30.507z" fill="#1b2141" data-fill-palette-color="accent"></path></g><path d="M20.541 48.802L20.503 32.169 19.215 32.172 19.185 19.1 15.887 19.108 15.917 31.447S14.898 33.193 11.709 33.193C8.797 33.193 2.237 29.379 2.237 29.379L0 34.911S4.712 37.258 7.294 37.659C8.26 37.81 9.294 37.874 10.284 37.889A3.64 3.64 0 0 0 9.337 40.326 3.65 3.65 0 0 0 10.781 43.222L5.157 46.077 7.47 50.189 13.192 46.244S13.777 45.83 14.296 46.104C14.763 46.351 14.826 46.968 14.826 46.968L14.831 48.818 16.766 48.805 16.742 50.367H18.981L18.98 48.802zM12.981 42.122A1.781 1.781 0 0 1 12.981 38.56C13.738 38.56 14.381 39.035 14.639 39.701H12.809V41.107H14.583A1.78 1.78 0 0 1 12.981 42.122" fill="#1b2141" data-fill-palette-color="accent"></path></svg></g></svg></g></svg></g><defs></defs></svg><rect width="395.52" height="154.14140197680956" fill="none" stroke="none" visibility="hidden"></rect></g></svg></g></svg>